<?xml version="1.0" encoding="utf-8"?>
<!-- Generator: Adobe Illustrator 24.3.0, SVG Export Plug-In . SVG Version: 6.00 Build 0)  -->
<svg version="1.1" id="Ebene_1" xmlns="http://www.w3.org/2000/svg" xmlns:xlink="http://www.w3.org/1999/xlink" x="0px" y="0px"
	 viewBox="0 0 960 384" style="enable-background:new 0 0 960 384;" xml:space="preserve">
<g>
	<path d="M131.4,117.8l33-2.1c0.7,5.4,2.2,9.5,4.4,12.3c3.6,4.5,8.7,6.8,15.3,6.8c5,0,8.8-1.2,11.5-3.5c2.7-2.3,4-5,4-8.1
		c0-2.9-1.3-5.5-3.8-7.8c-2.6-2.3-8.5-4.5-17.8-6.5c-15.2-3.4-26.1-8-32.6-13.6c-6.5-5.7-9.8-12.9-9.8-21.7c0-5.8,1.7-11.2,5-16.4
		c3.3-5.1,8.4-9.2,15.1-12.1c6.7-2.9,15.9-4.4,27.6-4.4c14.4,0,25.3,2.7,32.8,8c7.5,5.3,12,13.8,13.5,25.5L197,76.1
		c-0.9-5.1-2.7-8.7-5.5-11c-2.8-2.3-6.6-3.4-11.5-3.4c-4,0-7.1,0.9-9.1,2.6c-2,1.7-3.1,3.8-3.1,6.2c0,1.8,0.8,3.4,2.5,4.8
		c1.6,1.5,5.5,2.9,11.7,4.1c15.2,3.3,26.1,6.6,32.6,9.9c6.6,3.3,11.3,7.5,14.3,12.5c3,5,4.5,10.5,4.5,16.6c0,7.2-2,13.9-6,19.9
		c-4,6.1-9.6,10.7-16.7,13.8c-7.2,3.1-16.2,4.7-27.1,4.7c-19.1,0-32.4-3.7-39.7-11S132.4,129.2,131.4,117.8z"/>
	<path d="M325.7,109l30.4,9.2c-2,8.5-5.3,15.7-9.7,21.4c-4.4,5.7-9.9,10-16.4,13c-6.5,2.9-14.8,4.4-24.9,4.4
		c-12.2,0-22.2-1.8-29.9-5.3c-7.7-3.5-14.4-9.8-20-18.7c-5.6-8.9-8.4-20.4-8.4-34.3c0-18.6,4.9-32.9,14.8-42.9c9.9-10,23.9-15,42-15
		c14.2,0,25.3,2.9,33.4,8.6c8.1,5.7,14.1,14.5,18.1,26.4l-30.7,6.8c-1.1-3.4-2.2-5.9-3.4-7.5c-1.9-2.7-4.3-4.7-7.1-6.1
		c-2.8-1.4-6-2.1-9.4-2.1c-7.9,0-13.9,3.2-18.1,9.5c-3.2,4.7-4.8,12.1-4.8,22.1c0,12.5,1.9,21,5.7,25.6c3.8,4.6,9.1,6.9,15.9,6.9
		c6.6,0,11.7-1.9,15.1-5.6C321.7,121.5,324.2,116.1,325.7,109z"/>
	<path d="M442.1,136.4h-39.4l-5.5,18.6h-35.5L404,42.6h37.9L484.1,155h-36.4L442.1,136.4z M434.9,112.1l-12.4-40.4l-12.3,40.4H434.9
		z"/>
	<path d="M495.1,42.6h34.7v84.7H584V155h-88.9V42.6z"/>
	<path d="M599.8,42.6h93.1v24h-58.3v17.9h54v22.9h-54v22.2h59.9V155h-94.8V42.6z"/>
	<path d="M707.2,117.8l33-2.1c0.7,5.4,2.2,9.5,4.4,12.3c3.6,4.5,8.7,6.8,15.3,6.8c5,0,8.8-1.2,11.5-3.5c2.7-2.3,4-5,4-8.1
		c0-2.9-1.3-5.5-3.8-7.8c-2.6-2.3-8.5-4.5-17.8-6.5c-15.2-3.4-26.1-8-32.6-13.6c-6.5-5.7-9.8-12.9-9.8-21.7c0-5.8,1.7-11.2,5-16.4
		c3.3-5.1,8.4-9.2,15.1-12.1c6.7-2.9,15.9-4.4,27.6-4.4c14.4,0,25.3,2.7,32.8,8c7.5,5.3,12,13.8,13.5,25.5l-32.7,1.9
		c-0.9-5.1-2.7-8.7-5.5-11c-2.8-2.3-6.6-3.4-11.5-3.4c-4,0-7.1,0.9-9.1,2.6c-2,1.7-3.1,3.8-3.1,6.2c0,1.8,0.8,3.4,2.5,4.8
		c1.6,1.5,5.5,2.9,11.7,4.1c15.2,3.3,26.1,6.6,32.6,9.9c6.6,3.3,11.3,7.5,14.3,12.5c3,5,4.5,10.5,4.5,16.6c0,7.2-2,13.9-6,19.9
		c-4,6.1-9.6,10.7-16.7,13.8c-7.2,3.1-16.2,4.7-27.1,4.7c-19.1,0-32.4-3.7-39.7-11S708.1,129.2,707.2,117.8z"/>
	<path d="M125.9,231h33l11.9,62.9l17.4-62.9H221l17.4,62.8l11.9-62.8h32.8l-24.8,112.4h-34.1l-19.7-70.8L185,343.4h-34.1L125.9,231z
		"/>
	<path d="M295.9,231h34.8v112.4h-34.8V231z"/>
	<path d="M347.7,231h105.6v27.8h-35.4v84.6h-34.7v-84.6h-35.4V231z"/>
	<path d="M469.1,231h34.7v39.3h37.9V231h34.9v112.4h-34.9v-45.5h-37.9v45.5h-34.7V231z"/>
	<path d="M652.6,343.4V231h57.9c10.7,0,18.9,0.9,24.6,2.8s10.2,5.3,13.7,10.2c3.5,5,5.2,11.1,5.2,18.2c0,6.2-1.3,11.6-4,16.1
		c-2.7,4.5-6.3,8.2-11,11c-3,1.8-7,3.3-12.2,4.4c4.1,1.4,7.1,2.8,9,4.1c1.3,0.9,3.1,2.9,5.6,5.9c2.4,3,4,5.3,4.9,7l16.8,32.6h-39.2
		l-18.6-34.3c-2.4-4.4-4.4-7.3-6.3-8.7c-2.5-1.7-5.3-2.6-8.5-2.6h-3.1v45.6H652.6z M687.5,276.6h14.6c1.6,0,4.7-0.5,9.2-1.5
		c2.3-0.5,4.2-1.6,5.6-3.5c1.5-1.9,2.2-4.1,2.2-6.5c0-3.6-1.2-6.4-3.4-8.4c-2.3-1.9-6.6-2.9-13-2.9h-15.3V276.6z"/>
</g>
</svg>
